<!-- icon666.com - MILLIONS vector ICONS FREE --><svg id="svg16" viewBox="0 0 64 64" xmlns="http://www.w3.org/2000/svg" xmlns:osb="http://www.openswatchbook.org/uri/2009/osb"><path id="path1278" d="m25 13c-3.3937835.00000001-6.4760479 1.4177234-8.6582031 3.6914062a1.50015 1.50015 0 1 0 2.1640625 2.078125c1.6395728-1.7083426 3.9328384-2.7695312 6.4941406-2.7695312a1.50015 1.50015 0 1 0 0-3z" font-feature-settings="normal" font-variant-alternates="normal" font-variant-caps="normal" font-variant-ligatures="normal" font-variant-numeric="normal" font-variant-position="normal" isolation="auto" mix-blend-mode="normal" paint-order="fill markers stroke" shape-padding="0" solid-color="rgb(0,0,0)" text-decoration-color="rgb(0,0,0)" text-decoration-line="none" text-decoration-style="solid" text-indent="0" text-orientation="mixed" text-transform="none" white-space="normal" fill="#000000" style="fill: rgb(114, 110, 110);"></path><path id="path1230" d="m14.861328 20.574219a1.50015 1.50015 0 0 0 -1.3945312 1.1054688c-.30366906 1.0561235-.46679688 2.1707416-.46679688 3.3203125a1.50015 1.50015 0 1 0 3 0c0-.86758578.12238177-1.701918.34960938-2.4921875a1.50015 1.50015 0 0 0 -1.4882813-1.9335938z" font-feature-settings="normal" font-variant-alternates="normal" font-variant-caps="normal" font-variant-ligatures="normal" font-variant-numeric="normal" font-variant-position="normal" isolation="auto" mix-blend-mode="normal" paint-order="fill markers stroke" shape-padding="0" solid-color="rgb(0,0,0)" text-decoration-color="rgb(0,0,0)" text-decoration-line="none" text-decoration-style="solid" text-indent="0" text-orientation="mixed" text-transform="none" white-space="normal" fill="#000000" style="fill: rgb(114, 110, 110);"></path><path id="path816" d="m25 7c-9.9233585.00000001-18 8.0766415-18 18s8.0766415 18 18 18c4.422782 0 8.4718293-1.610399 11.609375-4.2675781l3.0917969 3.0917969c-.95995609 1.8797204-.71948674 4.229732.84570312 5.7949219l8.484375 8.484375c1.9403393 1.9403393 5.1319263 1.9403393 7.0722656 0s1.9403393-5.1299732 0-7.0703125l-8.4863281-8.4863281a1.50015 1.50015 0 1 0 -2.1210938 2.1210938l8.4863281 8.4863281c.8018208.8018208.8018208 2.0263042 0 2.828125-.80182082.80182081-2.0263042.80182079-2.828125 0l-8.4863281-8.484375c-.80182079-.80182077-.80182166-2.028257 0-2.8300781a1.50015 1.50015 0 0 0 0-2.1210938l-3.9375-3.9375c2.6576867-3.1376843 4.2695312-7.1861216 4.2695312-11.609375 0-9.9233585-8.0766415-18-18-18zm0 3c8.3020382 0 15 6.6979618 15 15-.00000001 8.3020382-6.6979618 15-15 15-8.3020382-.00000001-15-6.6979618-15-15s6.6979618-15 15-15z" font-feature-settings="normal" font-variant-alternates="normal" font-variant-caps="normal" font-variant-ligatures="normal" font-variant-numeric="normal" font-variant-position="normal" isolation="auto" mix-blend-mode="normal" paint-order="fill markers stroke" shape-padding="0" solid-color="rgb(0,0,0)" text-decoration-color="rgb(0,0,0)" text-decoration-line="none" text-decoration-style="solid" text-indent="0" text-orientation="mixed" text-transform="none" white-space="normal" fill="#000000" style="fill: rgb(114, 110, 110);"></path></svg>