<!-- icon666.com - MILLIONS vector ICONS FREE --><svg id="Layer_1" viewBox="0 0 32 32" xmlns="http://www.w3.org/2000/svg" xmlns:xlink="http://www.w3.org/1999/xlink"><linearGradient id="SVGID_1_" gradientUnits="userSpaceOnUse" x1="0" x2="32" y1="16.039" y2="16.039"><stop offset="0" stop-color="#fff33b"></stop><stop offset=".014" stop-color="#fee72e"></stop><stop offset=".042" stop-color="#fed51b"></stop><stop offset=".07" stop-color="#fdca10"></stop><stop offset=".1" stop-color="#fdc70c"></stop><stop offset=".4" stop-color="#f3903f"></stop><stop offset=".8" stop-color="#ed683c"></stop><stop offset="1" stop-color="#e93e3a"></stop></linearGradient><path d="m16.884 27.313c-.35 0-.715-.078-1.074-.234l-6.381-2.774c-.875-.38-2.48-.714-3.436-.714h-2.993c-1.654 0-3-1.346-3-3v-8.307c0-1.654 1.346-3 3-3h2.993c.935 0 2.482-.379 3.311-.812l6.502-3.394c.784-.409 1.598-.42 2.233-.034.638.387 1.003 1.114 1.003 1.996v17.918c0 .867-.361 1.602-.99 2.015-.345.226-.746.34-1.168.34zm-13.884-16.029c-.552 0-1 .448-1 1v8.307c0 .552.448 1 1 1h2.993c1.238 0 3.098.387 4.232.88l6.381 2.774c.199.085.319.073.349.057.028-.02.087-.127.087-.343v-17.918c0-.177-.035-.261-.051-.289-.013.011-.104.019-.26.101l-6.502 3.394c-1.117.582-2.978 1.038-4.236 1.038h-2.993zm21.907 14.334c-.425 0-.818-.271-.953-.698-.167-.526.125-1.088.651-1.255 3.227-1.022 5.395-3.986 5.395-7.376 0-3.387-2.263-6.435-5.502-7.409-.529-.16-.829-.718-.67-1.246s.717-.827 1.246-.67c4.078 1.228 6.926 5.062 6.926 9.325 0 4.266-2.729 7.996-6.791 9.282-.101.033-.202.047-.302.047zm-2.911-3.498c-.553 0-1-.447-1-1s.447-1 1-1c2.11 0 3.828-1.719 3.828-3.831 0-2.111-1.718-3.829-3.828-3.829-.553 0-1-.447-1-1s.447-1 1-1c3.214 0 5.828 2.615 5.828 5.829 0 3.215-2.614 5.831-5.828 5.831z" fill="url(#SVGID_1_)"></path></svg>