<!-- icon666.com - MILLIONS vector ICONS FREE --><svg id="Layer_1" viewBox="0 0 32 32" xmlns="http://www.w3.org/2000/svg" xmlns:xlink="http://www.w3.org/1999/xlink"><linearGradient id="SVGID_1_" gradientUnits="userSpaceOnUse" x1="0" x2="32" y1="17.483" y2="17.483"><stop offset="0" stop-color="#fff33b"></stop><stop offset=".014" stop-color="#fee72e"></stop><stop offset=".042" stop-color="#fed51b"></stop><stop offset=".07" stop-color="#fdca10"></stop><stop offset=".1" stop-color="#fdc70c"></stop><stop offset=".4" stop-color="#f3903f"></stop><stop offset=".8" stop-color="#ed683c"></stop><stop offset="1" stop-color="#e93e3a"></stop></linearGradient><path d="m25.824 16.289c0-2.111-1.718-3.829-3.828-3.829-.553 0-1-.447-1-1s.447-1 1-1c3.214 0 5.828 2.615 5.828 5.829 0 3.215-2.614 5.831-5.828 5.831-.236 0-.445-.094-.616-.231l-.152-.152c-.138-.172-.231-.38-.231-.616 0-.553.447-1 1-1 2.109-.001 3.827-1.72 3.827-3.832zm-15.669-6.021c1.267-.627 6.576-3.415 6.576-3.415.156-.082.247-.09.26-.101.016.028.051.112.051.289v10.51s.169 1.209.958 1.355c.422.078 1-.281 1.042-.719v-11.146c0-.882-.365-1.609-1.003-1.996-.635-.386-1.448-.375-2.233.034 0 0-5.346 2.756-6.996 3.56-.251.122-.154.986.065 1.252.417.506.969.531 1.28.377zm14.919-3.304c-.531-.157-1.087.142-1.246.67s.141 1.086.67 1.246c3.239.974 5.502 4.022 5.502 7.409 0 3.39-2.168 6.354-5.395 7.376-.365.116-.605.427-.67.779l1.146 1.146c.043-.008.085-.006.127-.02 4.063-1.285 6.792-5.015 6.792-9.281 0-4.263-2.848-8.097-6.926-9.325zm.084 21.532c.391.391.391 1.023 0 1.414-.195.195-.451.293-.707.293s-.512-.098-.707-.293l-4.712-4.712c-.061.763-.41 1.401-.98 1.775-.631.413-1.448.45-2.242.105l-6.381-2.774c-.875-.38-2.48-.714-3.436-.714h-2.993c-1.654 0-3-1.346-3-3v-8.307c0-1.654 1.346-3 3-3h.119l-1.825-1.824c-.391-.391-.391-1.023 0-1.414s1.023-.391 1.414 0zm-8.116-5.288-11.923-11.924h-2.119c-.552 0-1 .448-1 1v8.307c0 .552.448 1 1 1h2.993c1.238 0 3.098.387 4.232.88l6.381 2.774c.199.085.32.073.349.057.028-.02.087-.127.087-.343z" fill="url(#SVGID_1_)"></path></svg>